# xmcd CD database file
#
# Track frame offsets:
#	150
#	17518
#	28371
#	47103
#	61684
#	79914
#	90060
#	116699
#	134350
#	156617
#	173368
#	190288
#	207433
#	219501
#	240550
#	261973
#	285332
#	307149
#	332037
#
# Disc length: 4653 seconds
#
# Revision: 0
# Processed by: cddbd v1.5.2PL0 Copyright (c) Steve Scherf et al.
# Submitted via: CDex 2.07
#
DISCID=0b122b13
DTITLE=Paul McCartney - Pure McCartney - Disc 1
DYEAR=2016
DGENRE=Pop rock
TTITLE0=Maybe I'm Amazed
TTITLE1=Heart Of The Country
TTITLE2=Jet
TTITLE3=Warm And Beautiful
TTITLE4=Listen To What The Man Said
TTITLE5=Dear Boy
TTITLE6=Silly Love Songs
TTITLE7=The Song We Were Singing
TTITLE8=Uncle Albert - Admiral Halsey
TTITLE9=Another Day
TTITLE10=Sing The Changes
TTITLE11=Jenny Wren
TTITLE12=Save Us
TTITLE13=Mrs Vandebilt
TTITLE14=Mull of Kintyre
TTITLE15=Let 'Em In
TTITLE16=Let Me Roll It
TTITLE17=Nineteen Hundred and Eighty Five
TTITLE18=Ebony And Ivory (Remixed 2015)
EXTD=YEAR: 2016
EXTT0=
EXTT1=
EXTT2=
EXTT3=
EXTT4=
EXTT5=
EXTT6=
EXTT7=
EXTT8=
EXTT9=
EXTT10=
EXTT11=
EXTT12=
EXTT13=
EXTT14=
EXTT15=
EXTT16=
EXTT17=
EXTT18=
PLAYORDER=
